<svg width="1168" height="1168" viewBox="0 0 1168 1168" fill="none" xmlns="http://www.w3.org/2000/svg">
<circle cx="584" cy="584" r="584" fill="white"/>
<path d="M624.022 298.084C620.671 296.483 616.87 295.641 613 295.641V958.635C616.87 958.635 620.671 957.793 624.022 956.192L951.978 799.605C955.331 798.004 958.115 795.7 960.05 792.925C961.985 790.151 963.002 787.004 963 783.801V470.536C963.002 467.333 961.985 464.186 960.05 461.411C958.115 458.637 955.331 456.333 951.978 454.731L624.022 298.084Z" fill="#070B17"/>
<path d="M543.978 212.443C547.329 210.843 551.13 210 555 210V872.995C551.13 872.995 547.329 872.152 543.978 870.551L216.022 713.965C212.669 712.363 209.885 710.059 207.95 707.285C206.015 704.51 204.997 701.363 205 698.16V384.895C204.997 381.692 206.015 378.545 207.95 375.771C209.885 372.996 212.669 370.692 216.022 369.091L543.978 212.443Z" fill="#070B17"/>
</svg>
