<svg width="122" height="25" viewBox="0 0 122 25" fill="none" xmlns="http://www.w3.org/2000/svg">
<path d="M13.2452 3.95587C13.1389 3.90609 13.0183 3.87988 12.8955 3.87988V24.4997C13.0183 24.4997 13.1389 24.4735 13.2452 24.4237L23.6503 19.5537C23.7567 19.5039 23.845 19.4322 23.9064 19.3459C23.9678 19.2596 24.0001 19.1618 24 19.0621V9.3193C24.0001 9.21968 23.9678 9.1218 23.9064 9.03551C23.845 8.94922 23.7567 8.87757 23.6503 8.82776L13.2452 3.95587Z" fill="#091E42"/>
<path d="M10.7548 0.575985C10.8611 0.526206 10.9817 0.5 11.1045 0.5V21.1198C10.9817 21.1198 10.8611 21.0936 10.7548 21.0438L0.349724 16.1738C0.243333 16.124 0.154998 16.0523 0.0936069 15.966C0.0322161 15.8798 -6.38962e-05 15.7819 1.43051e-05 15.6823V5.93942C-6.38962e-05 5.8398 0.0322161 5.74192 0.0936069 5.65563C0.154998 5.56934 0.243333 5.49769 0.349724 5.44788L10.7548 0.575985Z" fill="#091E42"/>
<path d="M41.4382 19.25V6.15909H46.2322C47.1612 6.15909 47.9304 6.3125 48.5398 6.61932C49.1491 6.92187 49.6051 7.3331 49.9077 7.85298C50.2102 8.36861 50.3615 8.95028 50.3615 9.59801C50.3615 10.1435 50.2614 10.6037 50.0611 10.9787C49.8608 11.3494 49.5923 11.6477 49.2557 11.8736C48.9233 12.0952 48.5568 12.2571 48.1562 12.3594V12.4872C48.5909 12.5085 49.0149 12.6491 49.4283 12.9091C49.8459 13.1648 50.1911 13.5291 50.4638 14.0021C50.7365 14.4751 50.8729 15.0504 50.8729 15.728C50.8729 16.397 50.7152 16.9979 50.3999 17.5305C50.0888 18.0589 49.6072 18.4787 48.9553 18.7898C48.3033 19.0966 47.4702 19.25 46.456 19.25H41.4382ZM43.4134 17.5561H46.2642C47.2102 17.5561 47.8878 17.3729 48.2969 17.0064C48.706 16.6399 48.9105 16.1818 48.9105 15.6321C48.9105 15.2187 48.8061 14.8395 48.5973 14.4943C48.3885 14.1491 48.0902 13.8743 47.7024 13.6697C47.3189 13.4652 46.8629 13.3629 46.3345 13.3629H43.4134V17.5561ZM43.4134 11.8224H46.0597C46.5028 11.8224 46.9013 11.7372 47.255 11.5668C47.6129 11.3963 47.8963 11.1577 48.1051 10.8509C48.3182 10.5398 48.4247 10.1733 48.4247 9.75142C48.4247 9.21023 48.2351 8.75639 47.8558 8.38991C47.4766 8.02344 46.8949 7.8402 46.1108 7.8402H43.4134V11.8224ZM54.7034 6.15909V19.25H52.7921V6.15909H54.7034ZM61.1402 19.4482C60.2198 19.4482 59.4165 19.2372 58.7304 18.8153C58.0443 18.3935 57.5117 17.8033 57.1324 17.0447C56.7531 16.2862 56.5635 15.3999 56.5635 14.3857C56.5635 13.3672 56.7531 12.4766 57.1324 11.7138C57.5117 10.951 58.0443 10.3587 58.7304 9.93679C59.4165 9.51491 60.2198 9.30398 61.1402 9.30398C62.0607 9.30398 62.8639 9.51491 63.55 9.93679C64.2361 10.3587 64.7688 10.951 65.148 11.7138C65.5273 12.4766 65.7169 13.3672 65.7169 14.3857C65.7169 15.3999 65.5273 16.2862 65.148 17.0447C64.7688 17.8033 64.2361 18.3935 63.55 18.8153C62.8639 19.2372 62.0607 19.4482 61.1402 19.4482ZM61.1466 17.8438C61.7432 17.8438 62.2375 17.6861 62.6296 17.3707C63.0216 17.0554 63.3114 16.6357 63.4989 16.1115C63.6906 15.5874 63.7865 15.0099 63.7865 14.3793C63.7865 13.7528 63.6906 13.1776 63.4989 12.6534C63.3114 12.125 63.0216 11.701 62.6296 11.3814C62.2375 11.0618 61.7432 10.902 61.1466 10.902C60.5458 10.902 60.0472 11.0618 59.6509 11.3814C59.2588 11.701 58.9669 12.125 58.7752 12.6534C58.5877 13.1776 58.4939 13.7528 58.4939 14.3793C58.4939 15.0099 58.5877 15.5874 58.7752 16.1115C58.9669 16.6357 59.2588 17.0554 59.6509 17.3707C60.0472 17.6861 60.5458 17.8438 61.1466 17.8438ZM71.7159 19.4482C70.7656 19.4482 69.9475 19.233 69.2614 18.8026C68.5796 18.3679 68.0554 17.7692 67.6889 17.0064C67.3225 16.2436 67.1392 15.37 67.1392 14.3857C67.1392 13.3885 67.3267 12.5085 67.7017 11.7457C68.0767 10.9787 68.6051 10.38 69.2869 9.94957C69.9688 9.51918 70.772 9.30398 71.6967 9.30398C72.4425 9.30398 73.1073 9.44247 73.6911 9.71946C74.2749 9.99219 74.7458 10.3757 75.1037 10.87C75.4659 11.3643 75.6811 11.9418 75.7493 12.6023H73.8892C73.7869 12.142 73.5526 11.7457 73.1861 11.4134C72.8239 11.081 72.3381 10.9148 71.7287 10.9148C71.196 10.9148 70.7294 11.0554 70.3289 11.3366C69.9325 11.6136 69.6236 12.0099 69.402 12.5256C69.1804 13.0369 69.0696 13.642 69.0696 14.3409C69.0696 15.0568 69.1783 15.6747 69.3956 16.1946C69.6129 16.7145 69.9198 17.1172 70.3161 17.4027C70.7166 17.6882 71.1875 17.831 71.7287 17.831C72.0909 17.831 72.419 17.7649 72.7131 17.6328C73.0114 17.4964 73.2607 17.3026 73.461 17.0511C73.6655 16.7997 73.8083 16.4972 73.8892 16.1435H75.7493C75.6811 16.7784 75.4744 17.3452 75.1293 17.8438C74.7841 18.3423 74.3217 18.7344 73.7422 19.0199C73.1669 19.3054 72.4915 19.4482 71.7159 19.4482ZM79.281 15.9197L79.2682 13.5866H79.6006L83.5125 9.43182H85.8009L81.3392 14.1619H81.0388L79.281 15.9197ZM77.5232 19.25V6.15909H79.4344V19.25H77.5232ZM83.7234 19.25L80.2078 14.5838L81.5246 13.2479L86.0693 19.25H83.7234ZM91.9453 9.43182V10.9659H86.397V9.43182H91.9453ZM87.9183 19.25V8.29403C87.9183 7.6804 88.0525 7.17116 88.321 6.76634C88.5895 6.35724 88.9453 6.05256 89.3885 5.85227C89.8316 5.64773 90.3132 5.54545 90.8331 5.54545C91.2166 5.54545 91.5447 5.57741 91.8174 5.64134C92.0902 5.70099 92.2926 5.75639 92.4247 5.80753L91.9772 7.3544C91.8878 7.32883 91.7727 7.29901 91.6321 7.26491C91.4914 7.22656 91.321 7.20739 91.1207 7.20739C90.6562 7.20739 90.3238 7.32244 90.1235 7.55256C89.9275 7.78267 89.8295 8.11506 89.8295 8.54972V19.25H87.9183ZM95.5584 6.15909V19.25H93.6472V6.15909H95.5584ZM101.995 19.4482C101.075 19.4482 100.272 19.2372 99.5855 18.8153C98.8994 18.3935 98.3667 17.8033 97.9875 17.0447C97.6082 16.2862 97.4186 15.3999 97.4186 14.3857C97.4186 13.3672 97.6082 12.4766 97.9875 11.7138C98.3667 10.951 98.8994 10.3587 99.5855 9.93679C100.272 9.51491 101.075 9.30398 101.995 9.30398C102.916 9.30398 103.719 9.51491 104.405 9.93679C105.091 10.3587 105.624 10.951 106.003 11.7138C106.382 12.4766 106.572 13.3672 106.572 14.3857C106.572 15.3999 106.382 16.2862 106.003 17.0447C105.624 17.8033 105.091 18.3935 104.405 18.8153C103.719 19.2372 102.916 19.4482 101.995 19.4482ZM102.002 17.8438C102.598 17.8438 103.093 17.6861 103.485 17.3707C103.877 17.0554 104.166 16.6357 104.354 16.1115C104.546 15.5874 104.642 15.0099 104.642 14.3793C104.642 13.7528 104.546 13.1776 104.354 12.6534C104.166 12.125 103.877 11.701 103.485 11.3814C103.093 11.0618 102.598 10.902 102.002 10.902C101.401 10.902 100.902 11.0618 100.506 11.3814C100.114 11.701 99.822 12.125 99.6302 12.6534C99.4427 13.1776 99.349 13.7528 99.349 14.3793C99.349 15.0099 99.4427 15.5874 99.6302 16.1115C99.822 16.6357 100.114 17.0554 100.506 17.3707C100.902 17.6861 101.401 17.8438 102.002 17.8438ZM110.265 19.25L107.376 9.43182H109.351L111.275 16.642H111.371L113.301 9.43182H115.276L117.194 16.6101H117.29L119.201 9.43182H121.176L118.293 19.25H116.344L114.35 12.1612H114.203L112.208 19.25H110.265Z" fill="#0D141C"/>
</svg>
